<?xml version="1.0" standalone="no"?>
<!DOCTYPE svg PUBLIC "-//W3C//DTD SVG 20010904//EN"
 "http://www.w3.org/TR/2001/REC-SVG-20010904/DTD/svg10.dtd">
<svg version="1.0" xmlns="http://www.w3.org/2000/svg"
 width="285.000000pt" height="227.000000pt" viewBox="0 0 285.000000 227.000000"
 preserveAspectRatio="xMidYMid meet">

<g transform="translate(0.000000,227.000000) scale(0.100000,-0.100000)"
fill="#000000" stroke="none">
<path d="M1240 2245 c0 -8 7 -15 15 -15 8 0 15 7 15 15 0 8 -7 15 -15 15 -8 0
-15 -7 -15 -15z"/>
<path d="M1470 2245 c0 -8 7 -15 15 -15 8 0 15 7 15 15 0 8 -7 15 -15 15 -8 0
-15 -7 -15 -15z"/>
<path d="M1371 2216 c-14 -17 -7 -36 14 -36 22 0 29 20 13 36 -13 13 -16 13
-27 0z"/>
<path d="M1632 2208 c-16 -16 -15 -40 1 -63 14 -18 15 -18 65 0 40 15 58 16
84 9 38 -12 58 -8 58 11 0 26 -24 35 -63 23 -33 -10 -41 -9 -67 10 -33 25 -60
28 -78 10z"/>
<path d="M1520 2195 c-10 -12 -11 -21 -4 -33 15 -22 27 -24 49 -8 16 12 18 18
9 33 -15 24 -38 27 -54 8z"/>
<path d="M1992 2134 c-26 -18 -30 -65 -6 -88 35 -35 94 -6 94 46 0 44 -51 68
-88 42z"/>
<path d="M1874 2129 c-3 -6 0 -18 9 -26 18 -18 37 -9 37 18 0 21 -34 27 -46 8z"/>
<path d="M1726 2094 c-10 -9 -15 -23 -12 -31 3 -8 6 -17 6 -19 0 -2 10 -4 23
-4 36 0 67 -27 67 -59 0 -58 85 -95 123 -53 23 26 21 78 -4 103 -16 16 -30 19
-76 17 -53 -3 -57 -1 -72 26 -21 37 -34 42 -55 20z"/>
<path d="M2113 2064 c-7 -18 14 -35 34 -27 7 3 13 14 13 24 0 24 -38 26 -47 3z"/>
<path d="M2169 1970 c-9 -5 -22 -23 -29 -40 -7 -16 -14 -30 -15 -30 -2 0 -19
16 -38 35 -40 40 -72 45 -111 14 -36 -29 -33 -61 10 -101 34 -31 94 -110 94
-122 0 -3 -16 -6 -35 -6 -60 0 -102 -50 -226 -269 -104 -182 -240 -423 -311
-549 -17 -30 -34 -50 -38 -45 -5 4 -95 170 -200 368 -105 198 -204 376 -219
395 -82 104 -237 134 -328 64 -57 -43 -46 -7 -238 -769 -64 -253 -127 -502
-141 -552 -13 -51 -24 -95 -24 -98 0 -3 96 -5 213 -5 l213 0 83 368 c46 202
86 370 90 374 6 7 331 -578 331 -594 0 -10 -136 -82 -245 -131 -208 -93 -422
-162 -670 -217 -154 -34 -145 -38 21 -10 508 88 1035 301 1414 573 314 225
502 459 602 750 30 85 32 102 32 222 0 169 -17 219 -113 317 -66 67 -88 78
-122 58z m-499 -1254 c0 -2 -8 -10 -17 -17 -16 -13 -17 -12 -4 4 13 16 21 21
21 13z"/>
<path d="M2455 778 c-9 -22 -14 -42 -11 -45 2 -2 -7 -16 -20 -30 -13 -14 -24
-30 -24 -35 0 -4 -11 -26 -25 -48 -14 -22 -21 -40 -16 -40 5 0 12 -8 16 -19 6
-21 -3 -51 -16 -51 -6 0 -5 8 1 19 14 28 12 36 -5 21 -8 -7 -15 -9 -15 -4 0 4
-6 2 -12 -5 -7 -6 -13 -33 -13 -59 0 -46 0 -47 -33 -48 -43 0 -51 -15 -48 -88
2 -34 1 -53 -1 -44 -5 19 -23 25 -23 7 0 -6 5 -19 10 -30 10 -18 23 -19 174
-19 l163 0 18 35 c11 19 16 37 12 41 -3 4 -11 -4 -16 -17 -9 -21 -10 -20 -10
16 -1 24 3 35 7 27 11 -17 34 31 26 53 -8 20 -24 19 -24 -1 0 -8 5 -12 10 -9
6 3 10 2 10 -4 0 -12 -19 -25 -21 -14 -1 4 -3 33 -4 65 -3 50 -7 60 -40 91
-32 30 -35 38 -26 55 14 27 15 74 1 52 -11 -17 -8 46 5 94 6 21 5 27 -4 22 -6
-4 -11 -17 -11 -29 0 -17 -2 -19 -10 -7 -5 8 -5 19 -1 25 18 22 22 53 7 58
-10 4 -19 -7 -31 -35z m19 -9 c-11 -23 -13 -34 -5 -42 14 -14 15 -57 1 -57 -5
0 -6 7 -3 17 4 10 2 14 -4 10 -8 -5 -10 4 -9 25 4 45 15 78 27 78 5 0 2 -14
-7 -31z m-32 -77 c3 -11 0 -19 -7 -19 -7 0 -10 8 -7 19 2 10 6 18 7 18 1 0 5
-8 7 -18z m-45 -74 c-3 -8 -6 -5 -6 6 -1 11 2 17 5 13 3 -3 4 -12 1 -19z m3
-51 c0 -5 -4 -5 -10 -2 -5 3 -10 14 -10 23 0 15 2 15 10 2 5 -8 10 -19 10 -23z
m109 -56 c-6 -2 -15 3 -20 10 -15 24 -10 29 11 11 12 -10 16 -18 9 -21z m-118
6 c-10 -9 -11 -8 -5 6 3 10 9 15 12 12 3 -3 0 -11 -7 -18z m-51 3 c0 -5 -2
-10 -4 -10 -3 0 -8 5 -11 10 -3 6 -1 10 4 10 6 0 11 -4 11 -10z"/>
<path d="M2505 710 c-3 -10 -1 -29 5 -41 7 -12 9 -36 6 -55 -5 -26 -2 -38 15
-55 16 -16 24 -19 27 -10 2 7 0 16 -4 20 -5 3 -10 18 -11 33 0 14 -8 41 -17
59 -9 18 -14 41 -10 51 3 10 3 18 0 18 -2 0 -7 -9 -11 -20z"/>
<path d="M2280 477 c-16 -27 -15 -32 9 -33 13 -1 19 6 19 23 0 32 -11 36 -28
10z"/>
<path d="M2206 373 c-6 -14 -5 -15 5 -6 7 7 10 15 7 18 -3 3 -9 -2 -12 -12z"/>
<path d="M2599 363 c-1 -5 0 -21 1 -36 1 -15 -4 -35 -10 -43 -8 -9 -9 -14 -2
-14 14 0 23 30 20 69 -2 29 -7 41 -9 24z"/>
<path d="M158 23 c7 -3 16 -2 19 1 4 3 -2 6 -13 5 -11 0 -14 -3 -6 -6z"/>
</g>
  <!-- Company name -->
  <text x="60" y="32" fill="#373D5D" font-family="Arial" font-weight="700" font-size="24">MINDPIK</text>
  <text x="60" y="45" fill="#8B8FA3" font-family="Arial" font-size="12">TECHNOLOGIES</text>
</svg>
